<?xml version="1.0" encoding="UTF-8" standalone="no"?>
<!-- Created with Inkscape (http://www.inkscape.org/) -->

<svg
   width="32"
   height="32"
   viewBox="0 0 8.4666665 8.4666666"
   version="1.1"
   id="svg1"
   inkscape:version="1.4.2 (f4327f4, 2025-05-13)"
   sodipodi:docname="game-face.svg"
   xmlns:inkscape="http://www.inkscape.org/namespaces/inkscape"
   xmlns:sodipodi="http://sodipodi.sourceforge.net/DTD/sodipodi-0.dtd"
   xmlns="http://www.w3.org/2000/svg"
   xmlns:svg="http://www.w3.org/2000/svg">
  <sodipodi:namedview
     id="namedview1"
     pagecolor="#ffffff"
     bordercolor="#000000"
     borderopacity="0.25"
     inkscape:showpageshadow="2"
     inkscape:pageopacity="0.0"
     inkscape:pagecheckerboard="0"
     inkscape:deskcolor="#d1d1d1"
     inkscape:document-units="mm"
     inkscape:zoom="11.792255"
     inkscape:cx="3.9432661"
     inkscape:cy="17.681097"
     inkscape:window-width="1440"
     inkscape:window-height="829"
     inkscape:window-x="-8"
     inkscape:window-y="-8"
     inkscape:window-maximized="1"
     inkscape:current-layer="layer27"
     showgrid="false" />
  <defs
     id="defs1" />
  <g
     inkscape:label="Boy"
     inkscape:groupmode="layer"
     id="layer1"
     style="display:inline">
    <g
       inkscape:groupmode="layer"
       id="layer23"
       inkscape:label="BackHair"
       style="display:none">
      <path
         style="display:inline;fill:#1a1a1a;stroke-width:0.760477;stroke-opacity:0.59944"
         d="m 5.9626992,7.236141 c 0.14966,0.547977 0.24119,0.70899 0.64399,1.134485 -0.12952,-0.536366 -0.13418,-0.716832 -0.0108,-1.280504 0.16631,0.396734 0.24607,0.514139 0.57644,0.82959 -0.43551,-1.73756 0.45291,-1.529121 0.54205,-3.185297 0.20667,0.151197 0.42095,0.236155 0.67799,0.258046 C 8.1447692,4.803969 7.6287909,3.676571 7.4457509,3.117914 L 1.1507281,3.3743092 C 0.88456808,3.9711412 0.54185922,4.701306 0.30190922,4.92036 c 0.3342,-0.0799 0.43162,-0.121593 0.70279998,-0.288404 0.0222,1.439447 0.97017,1.394455 0.51676,2.758812 0.37514,-0.39137 0.40208,-0.524428 0.42582,-0.7286 0.0946,0.264707 0.3243,1.03869 0.0703,1.734219 0.38692,-0.341441 0.5776,-0.754977 0.68213,-1.225717 1.298,-0.46932 2.77089,-0.121826 3.26302,0.06547 z"
         id="path20"
         sodipodi:nodetypes="cccccccccccccccc"
         inkscape:label="WildBack" />
    </g>
    <g
       inkscape:groupmode="layer"
       id="layer8"
       inkscape:label="Face"
       style="display:inline"
       transform="matrix(0.26458333,0,0,0.26458333,9.9220052e-5,0)">
      <g
         inkscape:groupmode="layer"
         id="layer26"
         inkscape:label="ElfEars"
         style="display:none"
         transform="matrix(3.7795276,0,0,3.7795276,-3.7500493e-4,0)">
        <path
           d="m 10.305439,15.492902 c 1.397829,1.39778 1.397829,3.678448 0,5.076277 -1.397829,1.422352 -3.678497,1.422352 -5.0763258,0 C 3.8313338,19.17135 -1.0488047,12.010591 0.34902332,10.612763 1.7468521,9.2149343 8.90761,14.095073 10.305439,15.492902 Z"
           fill="#f4c6ad"
           id="path2-4"
           style="display:inline;stroke-width:2.45233"
           transform="matrix(0.26458333,0,0,0.26458333,9.9220053e-5,0)" />
        <path
           d="m 21.721442,15.493219 c -1.397829,1.39778 -1.397829,3.678448 0,5.076277 1.39783,1.422352 3.678496,1.422352 5.076325,0 1.39783,-1.397829 6.277968,-8.558588 4.88014,-9.956416 -1.397829,-1.3978287 -8.558635,3.48231 -9.956465,4.880139 z"
           fill="#f4c6ad"
           id="path3-8"
           style="display:inline;stroke-width:2.45233"
           transform="matrix(0.26458333,0,0,0.26458333,9.9220053e-5,0)" />
      </g>
      <g
         inkscape:groupmode="layer"
         id="layer27"
         inkscape:label="Ears"
         style="display:inline">
        <path
           d="m 29.02,17.75 c 0,1.7949 -1.4551,3.25 -3.25,3.25 -1.7949,0 -3.25,-1.4551 -3.25,-3.25 0,-1.7949 1.4551,-3.25 3.25,-3.25 1.676956,0 3.25,1.373922 3.25,3.25 z"
           fill="#f4c6ad"
           id="path2"
           style="display:inline"
           sodipodi:nodetypes="sssss" />
        <path
           d="m 6.25,14.5 c 1.79493,0 3.25,1.4551 3.25,3.25 C 9.5,19.5449 8.04493,21 6.25,21 4.45507,21 3,19.5449 3,17.75 3.1375914,15.816504 4.47576,14.85416 6.25,14.5 Z"
           fill="#f4c6ad"
           id="path3"
           sodipodi:nodetypes="sssss"
           style="display:inline" />
      </g>
      <path
         d="m 26,18.0117 c 0.0064,0 0.0128,0 0.0193,-2e-4 l -0.0449,2.2047 C 25.7354,26.0685 21.3433,30 16.005,30 10.6667,30 6.27451,26.0685 6.03548,20.2162 L 5.96002,17.9911 c 0.01523,7e-4 0.03054,0.0011 0.04595,0.0011 v -4 C 6.3314023,9.37974 9.4277724,5.8283514 14.8735,5.3997283 22.830952,5.1434107 25.435148,8.9416118 26.1286,14.3204 l -0.0322,0.9243 C 26.05142,16.166574 26.03296,17.089316 26,18.0117 Z"
         fill="#ffd7c2"
         id="path4"
         sodipodi:nodetypes="cccscccccccc" />
      <path
         d="m 16.002,23.1739 c -1.1084,0 -2.1369,-0.271 -3.0156,-0.7327 -0.2995,-0.1606 -0.6191,0.1806 -0.4293,0.4717 0.7289,1.1343 2.007,1.8871 3.4449,1.8871 1.4378,0 2.7159,-0.7528 3.4448,-1.8871 0.1798,-0.281 -0.1298,-0.6223 -0.4293,-0.4717 -0.8787,0.4717 -1.9072,0.7327 -3.0155,0.7327 z"
         fill="#990838"
         id="path5" />
      <path
         d="m 15.9934,22 c 0.68,0 1.27,-0.3452 1.63,-0.8731 C 17.9434,20.6497 17.6034,20 17.0334,20 h -2.07 c -0.57,0 -0.91,0.6497 -0.59,1.1269 0.35,0.5279 0.95,0.8731 1.62,0.8731 z"
         fill="#e5af93"
         id="path6" />
      <path
         d="m 8.19004,17.87 c 0.34,-1.34 1.56,-2.34 3.00996,-2.34 1.51,0 2.76,1.07 3.04,2.49 0.06,0.31 -0.19,0.6 -0.51,0.6 H 8.79004 c -0.4,0 -0.7,-0.37 -0.6,-0.75 z"
         fill="#ffffff"
         id="path7" />
      <path
         d="m 23.83,17.87 c -0.34,-1.34 -1.56,-2.34 -3.01,-2.34 -1.51,0 -2.76,1.07 -3.04,2.49 -0.06,0.31 0.19,0.6 0.51,0.6 h 4.94 c 0.4,0 0.7,-0.37 0.6,-0.75 z"
         fill="#ffffff"
         id="path8" />
    </g>
    <g
       inkscape:groupmode="layer"
       id="layer9"
       inkscape:label="Eyes"
       style="display:none"
       transform="matrix(0.26458333,0,0,0.26458333,9.9220052e-5,0)">
      <path
         d="m 9.67999,18.1 c 0,-1.09 0.89001,-1.98 1.98001,-1.98 1.09,0 1.98,0.89 1.98,1.98 0,0.19 -0.02,0.36 -0.07,0.53 H 9.74999 c -0.04,-0.17 -0.07,-0.35 -0.07,-0.53 z"
         fill="#7d4533"
         id="path9"
         style="display:inline;fill:#ffffff" />
      <path
         d="m 22.34,18.1 c 0,-1.09 -0.89,-1.98 -1.98,-1.98 -1.09,0 -1.98,0.89 -1.98,1.98 0,0.19 0.02,0.36 0.07,0.53 h 3.82 c 0.04,-0.17 0.07,-0.35 0.07,-0.53 z"
         fill="#7d4533"
         id="path10"
         style="display:inline;fill:#ffffff" />
    </g>
    <g
       inkscape:groupmode="layer"
       id="layer10"
       inkscape:label="Details"
       style="display:none"
       transform="matrix(0.26458333,0,0,0.26458333,9.9220052e-5,0)">
      <path
         d="m 11.66,16.97 c 0.62,0 1.13,0.5 1.13,1.13 0,0.19 -0.05,0.37 -0.13,0.53 h -2 c -0.08,-0.16 -0.13,-0.34 -0.13,-0.53 0,-0.62 0.5,-1.13 1.13,-1.13 z"
         fill="#000000"
         id="path11" />
      <path
         d="m 20.36,16.97 c -0.62,0 -1.13,0.5 -1.13,1.13 0,0.19 0.05,0.37 0.13,0.53 h 2 c 0.08,-0.16 0.13,-0.34 0.13,-0.53 0,-0.62 -0.5,-1.13 -1.13,-1.13 z"
         fill="#000000"
         id="path12" />
      <path
         d="m 11.33,17.32 c 0,0.1933 -0.1567,0.35 -0.35,0.35 -0.1933,0 -0.35,-0.1567 -0.35,-0.35 0,-0.1933 0.1567,-0.35 0.35,-0.35 0.1933,0 0.35,0.1567 0.35,0.35 z"
         fill="#ffffff"
         id="path13" />
      <path
         d="m 20.1,17.32 c 0,0.1933 -0.1567,0.35 -0.35,0.35 -0.1933,0 -0.35,-0.1567 -0.35,-0.35 0,-0.1933 0.1567,-0.35 0.35,-0.35 0.1933,0 0.35,0.1567 0.35,0.35 z"
         fill="#ffffff"
         id="path14" />
    </g>
    <g
       inkscape:groupmode="layer"
       id="layer11"
       inkscape:label="Hair"
       style="display:inline"
       transform="matrix(0.26458333,0,0,0.26458333,9.9220052e-5,0)">
      <path
         d="M 26.3447,5.9263 C 25.7947,5.70619 25.3527,5.27598 25.1071,4.72571 24.4393,3.16495 22.9267,2.05441 21.1587,1.99438 20.206,1.96436 19.3122,2.2445 18.5756,2.73474 c -0.442,0.30015 -1.0215,0.30015 -1.4635,0 C 16.3755,2.2445 15.4915,1.96436 14.5388,1.99438 13.3405,2.0344 12.2601,2.55465 11.4744,3.37505 11.111,3.75524 10.6297,4.00536 10.1189,4.12542 9.08764,4.34553 8.14474,4.87578 7.39828,5.66617 L 7.38846,5.67618 C 5.8366,7.31698 5.00174,9.46803 5.01156,11.7391 v 0.02 c 0.2751091,3.697846 -0.6760706,6.269054 0.99443,6.2331 0.031519,-3.312371 -0.227061,-4.852871 0.7010457,-5.848751 1.7859247,-1.916338 1.2510568,-2.8823585 1.6631611,-2.86588 0.4067742,0.016265 0.414034,2.197365 3.8656692,2.736155 0.749444,0.116986 1.016613,-0.443245 0.920269,-1.732985 -0.119973,-1.6060577 0.4426,-0.9155319 0.508528,-0.8227525 0.773927,1.0891435 2.030872,2.0079175 3.563806,2.3737215 1.532935,0.365803 6.822587,0.06317 7.302132,0.258729 0.95909,0.391124 1.547029,1.101777 1.567553,2.119703 0.02178,1.080088 -0.14314,2.935196 -0.09815,3.80156 0.797157,-0.103554 1.094353,-0.281392 1.0715,-2.4807 0.0238,-0.4959 0.0393,-1.2706 0.0393,-1.2706 0.0197,-0.6704 0.2947,-1.3107 0.7367,-1.8109 0.6187,-0.7004 1.0116,-1.6208 1.0312,-2.6313 0.0393,-1.77087 -1.0214,-3.2816 -2.534,-3.8919 z"
         fill="#212121"
         id="path1"
         sodipodi:nodetypes="cccccccccccccssssssssccccccc"
         style="display:none;fill:#333333"
         inkscape:label="Normal" />
      <path
         style="display:none;fill:#333333;stroke-width:2.8337;stroke-opacity:0.59944"
         d="m 10.40625,10.080406 c 2.101124,2.88857 3.485774,4.063269 7.875,4.711945 0,0 -0.78361,-0.725478 -1.09375,-1.143134 -0.30875,-0.415783 -0.75,-1.338305 -0.75,-1.338305 1.613451,1.18245 2.244187,1.455242 4.46875,1.756525 -0.724924,-0.590175 -0.908978,-0.818309 -1.3125,-1.617118 1.41082,1.396208 3.047366,1.889288 4.90625,2.342032 0.482446,1.522062 0.630318,2.157544 0.28125,4.572539 1.285614,-1.746702 1.659477,-2.290063 2.8125,-6.329063 l 1,1.338305 c 0.345461,-1.156919 0.275577,-2.351215 0.21875,-3.54093 0.991462,-0.0086 1.432094,-0.07462 2.375,-1.1988972 0,0 -0.518276,0.029987 -0.75,-0.055762 -2.419839,-0.895518 -1.311282,-2.9628097 -4.21875,-4.4610141 0.808803,-0.4786407 1.109514,-0.7285303 1.375,-2.007456 -0.845518,0.497096 -1.708255,0.3631098 -2.625,0.1951693 C 22.461225,1.821013 20.193024,1.144981 17.28125,1.4929553 18.190537,1.0170956 18.449073,0.94595326 19.0625,0.79592197 15.262951,-0.21958226 12.320342,0.84652523 10.125,2.5803273 10.278021,1.6214614 10.402438,1.302885 11.15625,0.4055833 9.7338547,0.74028042 8.6133539,1.1824756 8.28125,3.1937166 6.6569429,2.7708484 5.5446241,3.0487315 4.25,4.3647327 5.5778979,4.0198664 5.957125,4.0446655 6.90625,4.1974447 3.999666,4.7056122 3.7147854,7.5623012 2.5625,9.7737114 2.1742142,10.312615 1.7550342,10.53446 0.8125,10.77744 1.5998966,11.295361 1.9335094,11.404988 3.09375,11.251424 2.1546796,12.608579 1.6681192,13.740519 2.75,15.489386 2.681583,14.869987 2.9514968,14.497851 3.25,14.039557 3.5165097,16.372019 5.6686881,17.795393 7.1875,19.420654 6.7123665,16.999102 6.7747856,16.389814 6.9375,15.043284 7.2800773,15.343046 7.4266438,15.432418 8,15.656673 7.4798943,14.222327 7.4211712,13.722627 7.65625,12.143624 c 0.243602,1.205927 0.4575863,1.461025 0.96875,2.007457 0.3556271,-2.159485 0.6795945,-2.7124 1.78125,-4.070675 z"
         id="path17"
         sodipodi:nodetypes="ccscccccccccsccscccccccscccccccccc"
         inkscape:label="Eastern" />
      <g
         inkscape:groupmode="layer"
         id="layer16"
         inkscape:label="OneSided"
         style="display:none">
        <path
           style="display:inline;opacity:1;fill:#b3b3b3;stroke-width:3;stroke-opacity:0.59944"
           d="m 24.240504,7.4025241 c 1.574783,2.135456 1.960485,4.5956959 2.201552,7.1814389 l -0.327205,-0.06874 c 0.0047,1.283156 -0.02158,2.545275 -0.106574,3.825362 l -0.618718,0.596621 c -0.04199,-1.461589 -0.03161,-2.938614 -0.265165,-4.375223 -0.26917,-0.667289 -1.040535,-1.215919 -1.347923,-1.414213 0.116221,-1.683392 -0.182673,-2.769601 -2.32019,-3.7565051 z"
           id="path19"
           sodipodi:nodetypes="cccccsccc" />
        <path
           style="display:inline;opacity:1;fill:#ffffff;stroke-width:3;stroke-opacity:0.59944"
           d="M 19.703125,9.359375 C 19.304958,9.6946475 19.215073,9.8101392 19,10.140625 21.866695,9.6350855 25.646396,8.9708898 25.34375,5.1875 24.632531,2.0796116 21.705039,0.87741178 18.875,0.15625 c 0.960694,0.64451947 1.183283,0.8486204 1.59375,1.375 -4.836842,-2.8297603 -9.590817,-0.4333356 -14,1.90625 C 5.6776513,3.8774893 4.8011779,4.0218377 3.921875,4.171875 5.0252536,4.5232511 5.4955249,4.6282916 7.25,4.265625 3.8509994,6.8247587 3.9876156,8.2771189 2.15625,10.1875 c -0.5365141,0.604498 -1.23276131,0.940487 -1.953125,1.265625 1.488531,0.230027 2.0657185,0.08716 3.59375,-0.875 C 1.7333486,14.976876 2.4568103,19.216958 3.8125,22.484375 3.6040397,20.13206 3.6802624,19.002463 4.21875,17.421875 4.146476,22.563465 6.8817022,26.428502 9.1875,28.765625 7.9764762,25.875864 7.5502987,22.782346 7.453125,19.671875 7.9356256,21.408998 8.1760166,22.046427 9.5625,24.0625 9.3244916,23.367309 6.9057607,15.861241 11.21875,9.765625 c 1.272109,0.058897 1.661663,0.1411832 2.796875,0.578125 -0.250312,-0.3612524 -0.336837,-0.4662871 -0.625,-0.765625 1.335406,0.444878 1.734458,0.653412 2.859375,1.5 1.581322,-0.993881 2.0683,-1.2104405 3.453125,-1.71875 z"
           id="path18"
           sodipodi:nodetypes="ccscczccscccccccccccc" />
      </g>
      <path
         style="display:none;opacity:1;fill:#333333;stroke-width:3;stroke-opacity:0.59944"
         d="m 12.65625,11.15625 c 0.303429,2.230995 0.632603,3.800583 1.84375,5.78125 0.421806,0.689807 1.5,1.90625 1.5,1.90625 -0.584721,-1.546374 -0.720901,-2.042814 -1,-3.59375 0.912105,2.177584 2.420306,3.690412 4.03125,5.34375 -0.354008,-1.039913 -0.588289,-2.103976 -0.75,-3.1875 0.781982,-2.00604 0.785609,-4.321569 0.75,-6.03125 1.648038,2.58309 2.742485,3.722767 4.375,4.71875 0,0 -0.734523,-1.034873 -1.03125,-1.59375 -0.42461,-0.799741 -1.0625,-2.5 -1.0625,-2.5 1.701244,2.368678 2.155612,2.968367 3.25,4.40625 0.03282,3.965462 -0.334364,4.901295 -1.125,6.5625 1.016795,-0.966644 1.23102,-1.299816 1.71875,-2.25 -0.01037,1.493733 -0.414262,3.006429 -1.03125,4.9375 3.340715,-3.663317 3.853852,-9.96244 4.34375,-13.84375 0.868183,0.765488 1.147973,1.066885 1.893956,2.269068 C 29.953944,10.569463 29.456046,9.6507426 27.59375,7.4375 28.635249,7.469004 29.025321,7.403467 30.125,6.59375 c -2.163843,0.1736431 -3.498037,-1.5634137 -4.84375,-3 -1.007171,-0.8192996 -1.668606,-1.0056391 -3,-1.125 C 23.569497,1.964227 23.976332,1.9522018 25.09375,2.125 23.392021,1.0295884 21.543808,0.74636298 19.78125,1.84375 19.62691,1.0201555 19.267523,-0.62045791 15.5,-1.28125 16.62899,-0.70921721 17.265112,0.02995161 17.65625,1.1875 16.333999,0.38322062 15.880854,0.33644649 14.5625,0.3125 13.617654,0.29533789 11.661657,0.64758105 10.78125,0.46875 10.127128,0.33588268 8.9375,-0.3125 8.9375,-0.3125 10.03749,1.0967603 10.476096,1.3942972 11.84375,2 9.065966,2.1284666 8.0439858,3.4816491 6.28125,3.953125 5.1055525,4.2675867 4.4737229,4.2086839 3.0625,3.59375 4.4840486,5.3599688 5.0402131,5.4774435 6.5625,5.625 5.3921998,6.2789443 4.5404072,6.6674162 3.984375,6.765625 3.1905254,6.9169246 2.4357357,6.7452785 1.671875,6.546875 3.1303746,7.6731327 3.6402262,7.7240055 5.15625,7.59375 3.462803,9.9316304 3.9632263,9.8801924 3.21875,11.125 c -0.9751372,1.630485 -2.0206102,2.117437 -2.828125,2.46875 2.0489074,-0.003 2.7094373,-0.239924 3.75,-0.875005 0,0 -0.6519628,7.717643 2.6865243,11.250729 l 1.5791007,1.671146 -0.234375,-0.75 c 0.3487636,0.514576 0.4766454,0.616321 0.796875,0.84375 -0.8320775,-1.573936 -1.0588147,-3.316155 -1.1875,-5.062495 0.7457964,1.17191 0.980237,1.48823 1.65625,2.25 -1.6856894,-3.489858 -0.8624331,-6.948884 0.671875,-10.28125 -0.09226,1.878744 -0.03952,2.467582 0.343745,4.25 0.760432,-3.861625 1.25978,-4.583954 2.20313,-5.734375 z"
         id="path21"
         sodipodi:nodetypes="csccccccscccccccccacccccsaccsccsccsccscccccccc"
         transform="matrix(1,0,0,0.91792065,0,1.4573358)"
         inkscape:label="Wild" />
      <path
         style="display:none;fill:#333333;stroke-width:2.79456;stroke-opacity:0.59944"
         d="M 6.0388175,20.404616 C 5.9938086,17.066075 6.1202812,16.5305 7.6050865,15.256047 7.4714339,13.75137 7.972379,12.555423 8.9150377,11.442634 c 1.3392513,-0.226053 2.6395993,0.296137 3.9298533,0.61131 -0.369244,-0.280589 -0.457002,-0.395063 -0.64042,-0.785971 2.60892,1.250654 3.450973,1.527264 6.840856,0.392986 0.916177,0.62206 1.643991,1.129781 2.590793,3.595088 0.271659,-1.192646 0.359963,-1.879898 -0.37843,-4.046294 0.659742,0.315917 1.394466,0.36582 2.110476,0.451206 0.966173,0.977654 0.982723,2.306822 1.047966,3.595088 l 0.66953,0.713196 c 0.764687,0.67551 0.829332,1.630934 0.876274,4.508548 0.250583,-0.19524 0.513249,-0.445977 0.739328,-0.666025 0.208994,-2.22521 0.23822,-1.950052 0.305656,-2.765452 0.275139,-3.326815 -0.04278,-4.470362 -0.441129,-5.823637 0.984436,0.173902 1.70453,0.758359 2.398024,1.430581 C 28.506336,9.2033138 26.624927,7.9884334 25.989442,7.6719549 27.3194,7.0830621 27.994132,5.6503576 28.336007,4.3064877 27.1619,5.1517986 25.764359,5.2646165 24.363314,5.1298435 25.398774,4.3229803 26.158974,3.0907941 25.927692,0.2 24.581914,1.8638897 22.864614,2.3637401 20.925806,2.4539368 17.961739,2.1011375 15.416732,2.0633592 12.71283,3.5242998 13.40403,2.3950588 14.016844,1.8679738 15.697495,1.1880273 13.347819,1.1505839 11.186258,1.8714617 9.3267784,3.2978768 8.5466752,3.9508047 8.0805437,4.7959823 7.7006505,5.7164848 7.4187722,4.8660763 7.3836241,4.3142095 7.8138618,2.9788263 6.0123682,4.4657699 5.2504378,5.8885239 5.6319668,8.0218812 5.3200101,7.8664207 4.916062,7.7773477 3.8,7.8366261 4.3421489,8.3910791 4.7765373,8.7397747 5.3232084,9.1334116 4.4486364,9.7092796 4.2411875,10.67528 4.026423,11.624063 4.666246,10.965717 4.9579183,10.798452 5.621675,10.584576 4.369515,13.49967 4.9532908,16.864642 5.4158359,19.89879 Z"
         id="path22"
         sodipodi:nodetypes="cccccccccccccsccccccsccsccccccccc"
         inkscape:label="Hero" />
    </g>
    <g
       inkscape:groupmode="layer"
       id="layer13"
       inkscape:label="Eyebrows"
       style="display:inline"
       transform="matrix(0.26458333,0,0,0.26458333,9.9220052e-5,0)">
      <path
         d="M 9.60768,14.5633 C 10.129,14.3777 10.8757,14.2368 11.8631,14.33 c 0.2749,0.0259 0.5188,-0.1759 0.5447,-0.4508 0.0259,-0.275 -0.1759,-0.5189 -0.4508,-0.5448 -1.1327,-0.1068 -2.02594,0.0523 -2.68465,0.2868 -0.26015,0.0925 -0.39598,0.3785 -0.30338,0.6387 0.09259,0.2601 0.37855,0.396 0.63871,0.3034 z"
         fill="#212121"
         id="path15" />
      <path
         d="m 22.1777,13.6212 c -0.6588,-0.2345 -1.552,-0.3936 -2.6847,-0.2868 -0.2749,0.0259 -0.4767,0.2698 -0.4508,0.5448 0.0259,0.2749 0.2698,0.4767 0.5448,0.4508 0.9873,-0.0932 1.734,0.0477 2.2553,0.2333 0.2602,0.0926 0.5461,-0.0433 0.6387,-0.3034 0.0926,-0.2602 -0.0432,-0.5462 -0.3033,-0.6387 z"
         fill="#212121"
         id="path16" />
    </g>
    <g
       inkscape:groupmode="layer"
       id="layer12"
       inkscape:label="Upper"
       style="display:none"
       transform="matrix(0.26458333,0,0,0.26458333,9.9220052e-5,0)">
      <path
         d="m 15.96005,1.7 c 2.16,0 4.26,0.37 5.75,1.01 1.25,0.54 1.72,1.12 1.72,1.36 0,0.24 -0.47,0.82 -1.72,1.36 -1.49,0.64 -3.58,1.01 -5.75,1.01 -2.17,0 -4.26,-0.36 -5.74,-1 C 8.96,4.9 8.5,4.31 8.5,4.07 c 0,-0.24 0.47,-0.82 1.72005,-1.36 1.48,-0.64 3.58,-1.01 5.74,-1.01 z m 0,-1.5 C 11.01005,0.2 7,1.93 7,4.07 c 0,2.14 4.01005,3.87 8.97005,3.87 4.96,0 8.9699,-1.73 8.9699,-3.87 0,-2.14 -4.0199,-3.87 -8.9799,-3.87 z"
         fill="#26c9fc"
         id="path1-0"
         inkscape:label="Halo"
         style="display:inline" />
      <g
         inkscape:groupmode="layer"
         id="layer14"
         inkscape:label="Ears"
         style="display:none">
        <path
           d="M 23.65364,8.3861342 23.630589,2.0153195 C 23.65364,1.5619102 23.100327,1.3236782 22.792931,1.654129 L 17.359705,5.8039763 C 17.152212,5.9653592 16.890926,6.110942 16.629639,6.110942 h -1.344858 c -0.261286,0 -0.522573,-0.1455828 -0.730066,-0.3069657 L 9.1214586,1.654129 C 8.8140626,1.3236782 8.2607496,1.5619102 8.2838044,2.0153195 l -0.023055,6.4784037 c -0.2009162,0.0065 2.4464496,-0.660964 5.2754606,-1.162132 2.828356,-0.501053 4.291369,-0.181684 7.308681,0.490681"
           fill="#9b9b9b"
           id="path1-09"
           sodipodi:nodetypes="ccccssccccsc"
           style="display:inline;fill:#ff9955;stroke-width:0.76849" />
        <path
           d="m 9.044602,7.4715852 c -0.00768,0.222831 0.2228621,0.384214 0.4380394,0.307365 L 12.787188,6.5801361 c 0.238232,-0.084534 0.292026,-0.4072999 0.08453,-0.5686829 L 9.5825452,3.4984902 C 9.3904226,3.283313 9.0369171,3.437011 9.0522869,3.7213523 Z"
           fill="#d3d3d3"
           id="path2-48"
           style="display:inline;fill:#ffccaa;stroke-width:0.76849" />
        <path
           d="m 22.885073,7.4716312 c 0,0.222862 -0.222863,0.384245 -0.438039,0.307396 L 19.13484,6.5801822 C 18.896608,6.4956483 18.842814,6.1728823 19.050306,6.0114993 l 3.289139,-2.512963 c 0.192122,-0.2074923 0.545628,-0.053794 0.530258,0.2305471 z"
           fill="#d3d3d3"
           id="path3-82"
           style="display:inline;fill:#ffccaa;stroke-width:0.76849" />
      </g>
      <g
         inkscape:groupmode="layer"
         id="layer15"
         inkscape:label="Horns"
         style="display:none">
        <path
           d="m 7.5024707,10.000308 c 0,0 1.5000003,0 2.4999703,-1 1,-0.9999997 1,-2.4999997 1,-2.4999997 l -4.8661103,-2.89147 c -0.62931,-0.37394 -1.36667,0.28283 -1.06773,0.95104 z"
           fill="#fcd53f"
           id="path8-9"
           style="display:inline;fill:#cccccc" />
        <path
           d="m 24.602441,10.000308 c 0,0 -1.5,0 -2.5,-1 -1,-0.9999997 -1,-2.4999997 -1,-2.4999997 l 4.8661,-2.89147 c 0.6293,-0.37394 1.3667,0.28283 1.0677,0.95104 z"
           fill="#fcd53f"
           id="path9-4"
           style="display:inline;fill:#cccccc" />
      </g>
    </g>
    <g
       inkscape:groupmode="layer"
       id="layer17"
       inkscape:label="Upper 1" />
    <g
       inkscape:groupmode="layer"
       id="layer18"
       inkscape:label="Upper 2"
       style="display:inline" />
  </g>
  <g
     inkscape:groupmode="layer"
     id="layer19"
     inkscape:label="Girl"
     transform="matrix(0.125,0,0,0.11623364,-0.06614585,0.5286177)"
     style="display:inline">
    <g
       inkscape:groupmode="layer"
       id="layer2"
       inkscape:label="BackHair"
       style="display:inline"
       transform="scale(2.1166667)">
      <g
         inkscape:groupmode="layer"
         id="layer22"
         inkscape:label="TwoTails"
         style="display:inline"
         transform="scale(0.47244093)">
        <path
           d="m 8.43877,21.22 -6,4.03 c -0.55,0.37 -0.59,1.17 -0.08,1.6 l 3.19,2.81 c 0.72,0.64 1.85,0.34 2.18,-0.56 l 2.32003,-6.49 z"
           fill="#212121"
           id="path2-8"
           style="display:inline"
           transform="scale(2.1166667)" />
        <path
           d="m 23.6288,21.22 6,4.03 c 0.55,0.37 0.59,1.17 0.08,1.6 l -3.19,2.81 c -0.72,0.64 -1.85,0.34 -2.18,-0.56 l -2.32,-6.49 z"
           fill="#212121"
           id="path3-824"
           style="display:inline"
           inkscape:label="path3"
           transform="scale(2.1166667)" />
      </g>
      <path
         style="display:none;opacity:1;fill:#ffffff;fill-opacity:1;stroke-width:0.375;stroke-opacity:0.59944"
         d="M -0.99999995,25.937499 C 1.3603638,22.426459 1.3431602,19.534531 1.9999999,15.499999 2.8193526,8.084002 6.0611458,0.53122948 15.874999,0.56249997 c 8.98323,0.0400498 12.724128,7.02368323 13.9375,14.68749903 -0.224372,4.863507 1.456456,7.584103 2.875,11.8125 0.613823,2.033989 1.25,6.25 1.25,6.25 -12.243086,1.218281 -23.597686,0.680522 -35.7499989,-0.1875 -0.4703091,-2.430518 0.063668,-4.85253 0.81249995,-7.1875 z"
         id="path38"
         sodipodi:nodetypes="sssasccs"
         inkscape:label="Long" />
      <path
         style="display:none;fill:#ffffff;fill-opacity:1;stroke-width:0.375;stroke-opacity:0.59944"
         d="M 15.909901,1.9445435 C 13.586686,1.9599647 11.078895,2.2234811 9.1039994,3.4471454 7.1091944,4.6831457 5.7731368,6.8482823 4.6845822,8.9272226 3.715873,10.77728 3.2613469,12.877919 2.9168154,14.93763 2.488627,17.497467 2.3957994,20.12581 2.563262,22.715804 c 0.06763,1.045976 0.2318606,2.096752 0.5461129,3.096695 0.2151793,0.684695 0.9062498,1.953125 0.9062498,1.953125 0,0 0.5471141,0.397117 1.2540607,0.721891 0.4940499,0.226969 1.6546795,0.684819 1.6546795,0.684819 0,0 -0.2322647,-3.527056 -0.4622779,-3.650888 -0.810898,-0.436563 -0.00974,2.762823 -0.00974,2.762823 l 9.015611,-0.795494 9.413358,0.685009 0.243069,-2.110271 c 0,0 -0.465616,0.820195 -0.342505,1.226388 0.09928,0.327577 -0.165728,1.834058 -0.165728,1.834058 0,0 0.996824,-0.398336 1.834057,-0.817592 0.339038,-0.169778 0.994369,-0.552427 0.994369,-0.552427 0,0 0.381098,-0.568698 0.508234,-0.883884 0.374903,-0.929431 0.589479,-1.924408 0.729203,-2.916815 0.236332,-1.678579 0.266013,-3.389546 0.176777,-5.08233 -0.122172,-2.317619 -0.296433,-4.674036 -0.97227,-6.89429 C 27.28599,10.003759 26.467541,8.0275499 25.190677,6.4081549 24.082354,5.0025132 22.652001,3.7760001 21.036426,3.0052036 19.461463,2.2537832 17.654895,1.9329605 15.909901,1.9445435 Z"
         id="path40"
         sodipodi:nodetypes="sssssscscsccccscscsasssss"
         inkscape:label="BobCut" />
      <path
         style="display:none;fill:#ffffff;stroke-width:0.375;stroke-opacity:0.59944"
         d="M 17.766057,5.5684657 C 18.066255,-1.3321458 8.9105704,-1.6348038 4.5519997,4.861359 c -3.0423222,4.8324886 -2.4466554,9.161623 -1.5909901,14.4073 1.6496571,6.519625 1.487551,9.000938 -2.87262126,14.628271 4.34037456,1.273125 6.70471916,0.696756 11.09273766,0.132582 0.07549,-1.280755 0.865285,-2.226364 1.370019,-3.314562 0.486784,-1.175201 0.610561,-2.469994 0.883884,-3.71231 1.566225,-7.118865 4.014231,-14.15194 4.331028,-21.4341743 z"
         id="path42"
         sodipodi:nodetypes="sssccsss"
         inkscape:label="Ponytail" />
      <g
         inkscape:groupmode="layer"
         id="layer21"
         inkscape:label="Pigtails"
         style="display:inline"
         transform="scale(0.47244093)">
        <path
           style="display:inline;fill:#1a1a1a;stroke-width:0.375;stroke-opacity:0.59944"
           d="m 1.6351844,11.512582 c 0,0 -0.090608,0.606852 0.066291,0.839689 0.1380589,0.204878 0.4183341,0.366336 0.6629126,0.331457 C 2.6327071,12.645463 2.8358651,12.495997 2.9610096,12.1313 3.0861541,11.766603 2.8626064,11.129524 2.7179416,10.650796 2.5005211,9.9313032 1.9724536,9.3248774 1.789864,8.5957666 1.5477696,7.6290431 1.3801903,6.5866863 1.5909902,5.6126599 1.7819862,4.7301398 2.2201235,3.8503282 2.8726213,3.2261746 3.4987296,2.6272642 4.3518897,2.1760151 5.2149124,2.0992232 5.9002175,2.0382447 6.6221304,2.2839598 7.2036501,2.6516504 7.6979492,2.964192 8.0940013,3.5054368 8.3526986,3.9774755 8.6113959,4.4495142 8.7375181,4.9011986 8.7725433,5.3916891 8.8086024,5.8966576 8.9519599,6.5844794 8.5515724,6.894291 8.1179812,7.2297949 7.4596659,6.6439388 6.916388,6.7175142 6.5395838,6.7685443 6.1480986,6.894244 5.8557279,7.1373589 5.5147398,7.4209006 5.243916,7.8311962 5.1486211,8.2643102 5.0113946,8.8880027 5.3800171,9.5261561 5.3916891,10.16466 5.4050718,10.896748 5.4302271,11.659618 5.1928152,12.352271 5.0112923,12.881867 4.7195895,13.441889 4.2868347,13.766485 3.8540799,14.091081 3.3053299,14.240476 2.7842329,14.208426 2.3034902,14.178858 1.7880292,13.985096 1.4584077,13.633902 1.1905345,13.348497 1.0276444,12.919075 1.0606601,12.529047 1.0934882,12.141235 1.6351844,11.512582 1.6351844,11.512582 Z"
           id="path43"
           sodipodi:nodetypes="csszsssssszssssssszsssc"
           inkscape:label="PigtailL"
           transform="scale(2.1166667)" />
        <path
           style="display:inline;fill:#1a1a1a;stroke-width:0.375;stroke-opacity:0.59944"
           d="m 30.941899,11.512264 c 0,0 0.09061,0.606852 -0.06629,0.839689 -0.138059,0.204878 -0.418334,0.366336 -0.662912,0.331457 -0.268319,-0.03827 -0.471477,-0.187731 -0.596622,-0.552428 -0.125144,-0.364697 0.0984,-1.001776 0.243068,-1.480504 C 30.076563,9.930985 30.60463,9.3245592 30.78722,8.5954484 31.029314,7.6287249 31.196893,6.5863681 30.986094,5.6123417 30.795098,4.7298216 30.35696,3.85001 29.704462,3.2258564 29.078354,2.626946 28.225194,2.1756969 27.362171,2.098905 26.676866,2.0379265 25.954953,2.2836416 25.373434,2.6513322 24.879135,2.9638738 24.483082,3.5051186 24.224385,3.9771573 23.965688,4.449196 23.839566,4.9008804 23.80454,5.3913709 c -0.03606,0.5049685 -0.179416,1.1927903 0.220971,1.5026019 0.433592,0.3355039 1.091907,-0.2503522 1.635185,-0.1767768 0.376804,0.05103 0.768289,0.1767298 1.06066,0.4198447 0.340988,0.2835417 0.611812,0.6938373 0.707107,1.1269513 0.137226,0.6236925 -0.231396,1.2618459 -0.243068,1.90035 -0.01338,0.732088 -0.03854,1.494958 0.198874,2.187611 0.181522,0.529596 0.473225,1.089618 0.90598,1.414214 0.432755,0.324596 0.981505,0.473991 1.502602,0.441941 0.480743,-0.02957 0.996204,-0.22333 1.325825,-0.574524 0.267873,-0.285405 0.430763,-0.714827 0.397748,-1.104855 -0.03283,-0.387812 -0.574525,-1.016465 -0.574525,-1.016465 z"
           id="path23"
           sodipodi:nodetypes="csszsssssszssssssszsssc"
           inkscape:label="PigtailR"
           transform="scale(2.1166667)" />
      </g>
    </g>
    <g
       inkscape:groupmode="layer"
       id="layer5"
       inkscape:label="Face"
       style="display:inline"
       transform="scale(2.1166667)">
      <g
         inkscape:groupmode="layer"
         id="layer24"
         inkscape:label="Ears"
         style="display:inline"
         transform="scale(0.47244093)" />
      <g
         inkscape:groupmode="layer"
         id="layer25"
         inkscape:label="ElfEars"
         style="display:none">
        <path
           d="m 9.2666941,15.651075 c 1.2675379,1.267493 1.2675379,3.335581 0,4.603119 -1.267538,1.289775 -3.335626,1.289775 -4.6031633,0 C 3.3960376,18.986656 -1.0292255,12.493349 0.23831213,11.225812 1.5058498,9.9582743 7.9991561,14.383537 9.2666941,15.651075 Z"
           fill="#f4c6ad"
           id="path2-4-5"
           style="display:inline;opacity:1;stroke-width:2.22375" />
        <path
           d="m 22.749945,15.651075 c -1.267538,1.267493 -1.267538,3.335581 0,4.603119 1.267538,1.289775 3.335625,1.289775 4.603163,0 1.267538,-1.267538 5.692801,-7.760845 4.425263,-9.028382 -1.267537,-1.2675377 -7.760888,3.157725 -9.028426,4.425263 z"
           fill="#f4c6ad"
           id="path3-8-5"
           style="display:inline;opacity:1;stroke-width:2.22375" />
      </g>
      <path
         d="M 9.75,17.75 C 9.75,19.5449 8.29493,21 6.5,21 4.70507,21 3.25,19.5449 3.25,17.75 c 0,-1.7949 1.45507,-3.25 3.25,-3.25 1.79493,0 3.25,1.4551 3.25,3.25 z"
         fill="#f4c6ad"
         id="path4-1"
         style="display:inline" />
      <path
         d="m 28.75,17.75 c 0,1.7949 -1.4551,3.25 -3.25,3.25 -1.7949,0 -3.25,-1.4551 -3.25,-3.25 0,-1.7949 1.4551,-3.25 3.25,-3.25 1.7949,0 3.25,1.4551 3.25,3.25 z"
         fill="#f4c6ad"
         id="path5-7"
         style="display:inline" />
      <path
         d="M 15.658686,3.53125 C 9.7759115,3.5790848 6.2870322,8.0911041 5.84399,14.5662 l 0.19167,5.6487 C 6.2748,26.074 10.6591,30 16,30 c 5.3309,0 9.7252,-3.926 9.9643,-9.7851 L 26.156,14.5662 C 25.794678,7.0434293 22.080316,3.4790336 15.658686,3.53125 Z"
         fill="#ffd7c2"
         id="path6-1"
         sodipodi:nodetypes="sccsccs" />
      <path
         d="m 16.0136,23.3729 c -1.1084,0 -2.1368,-0.271 -3.0155,-0.7328 -0.2996,-0.1606 -0.6191,0.1807 -0.4294,0.4718 0.7289,1.1343 1.9971,1.8871 3.4449,1.8871 1.4479,0 2.716,-0.7528 3.4449,-1.8871 0.1797,-0.281 -0.1298,-0.6223 -0.4294,-0.4718 -0.8787,0.4718 -1.9071,0.7328 -3.0155,0.7328 z"
         fill="#990839"
         id="path7-1" />
      <path
         d="m 16.0034,22 c 0.67,0 1.27,-0.3452 1.62,-0.8731 C 17.9434,20.6497 17.6034,20 17.0334,20 h -2.07 c -0.57,0 -0.91,0.6497 -0.59,1.1269 0.36,0.5279 0.96,0.8731 1.63,0.8731 z"
         fill="#e5af93"
         id="path8-5" />
      <path
         d="m 8.21878,18.47 c 0.33,-1.34 1.55,-2.34 3.00002,-2.34 1.5,0 2.76,1.07 3.05,2.49 0.06,0.31 -0.19,0.6 -0.51,0.6 H 8.81878 c -0.4,0 -0.7,-0.37 -0.6,-0.75 z"
         fill="#ffffff"
         id="path9-2" />
      <path
         d="m 23.8188,18.47 c -0.33,-1.34 -1.55,-2.34 -3,-2.34 -1.5,0 -2.75,1.07 -3.05,2.49 -0.06,0.31 0.19,0.6 0.51,0.6 h 4.94 c 0.4,0 0.7,-0.37 0.6,-0.75 z"
         fill="#ffffff"
         id="path10-7" />
    </g>
    <g
       inkscape:groupmode="layer"
       id="layer3"
       inkscape:label="Eyes"
       style="display:inline"
       transform="scale(2.1166667)">
      <path
         d="m 9.69879,18.7 c 0,-1.09 0.89001,-1.98 1.98001,-1.98 1.09,0 1.98,0.89 1.97,1.98 0,0.18 -0.02,0.35 -0.07,0.52 H 9.76879 c -0.04,-0.16 -0.07,-0.34 -0.07,-0.52 z"
         fill="#7d4533"
         id="path11-6"
         style="display:inline;fill:#ffffff" />
      <path
         d="m 22.3488,18.7 c 0,-1.09 -0.89,-1.98 -1.98,-1.98 -1.1,0 -1.98,0.89 -1.97,1.98 0,0.18 0.02,0.35 0.07,0.52 h 3.81 c 0.04,-0.16 0.07,-0.34 0.07,-0.52 z"
         fill="#7d4533"
         id="path12-1"
         style="display:inline;fill:#ffffff" />
    </g>
    <g
       inkscape:groupmode="layer"
       id="layer4"
       inkscape:label="Eyebrows"
       style="display:inline"
       transform="scale(2.1166667)">
      <path
         d="m 9.90645,15.171 c 0.52125,-0.1855 1.26805,-0.3264 2.25535,-0.2332 0.2749,0.0259 0.5188,-0.1759 0.5448,-0.4508 0.0259,-0.275 -0.1759,-0.5189 -0.4509,-0.5448 -1.1326,-0.1069 -2.0259,0.0523 -2.68458,0.2867 -0.26015,0.0926 -0.39598,0.3786 -0.30339,0.6388 0.0926,0.2601 0.37856,0.3959 0.63872,0.3033 z"
         fill="#212121"
         id="path17-4" />
      <path
         d="m 22.4664,14.2289 c -0.6587,-0.2344 -1.552,-0.3936 -2.6846,-0.2867 -0.2749,0.0259 -0.4768,0.2698 -0.4508,0.5448 0.0259,0.2749 0.2698,0.4767 0.5447,0.4508 0.9874,-0.0932 1.7341,0.0477 2.2554,0.2332 0.2601,0.0926 0.5461,-0.0432 0.6387,-0.3033 0.0926,-0.2602 -0.0432,-0.5462 -0.3034,-0.6388 z"
         fill="#212121"
         id="path18-2" />
    </g>
    <g
       inkscape:groupmode="layer"
       id="layer6"
       inkscape:label="Details"
       style="display:inline"
       transform="scale(2.1166667)">
      <path
         d="m 11.6788,17.57 c 0.62,0 1.13,0.51 1.13,1.13 0,0.19 -0.05,0.37 -0.13,0.52 h -2 c -0.08,-0.15 -0.13,-0.33 -0.13,-0.52 0,-0.62 0.51,-1.13 1.13,-1.13 z"
         fill="#000000"
         id="path13-3" />
      <path
         d="m 20.3688,17.57 c -0.62,0 -1.13,0.51 -1.13,1.13 0,0.19 0.04,0.37 0.13,0.52 h 2 c 0.08,-0.15 0.13,-0.33 0.13,-0.52 0,-0.62 -0.51,-1.13 -1.13,-1.13 z"
         fill="#000000"
         id="path14-2" />
      <path
         d="m 11.3488,17.92 c 0,0.1933 -0.1567,0.35 -0.35,0.35 -0.1933,0 -0.35,-0.1567 -0.35,-0.35 0,-0.1933 0.1567,-0.35 0.35,-0.35 0.1933,0 0.35,0.1567 0.35,0.35 z"
         fill="#ffffff"
         id="path15-2" />
      <path
         d="m 20.0988,17.92 c 0,0.1933 -0.1567,0.35 -0.35,0.35 -0.1933,0 -0.35,-0.1567 -0.35,-0.35 0,-0.1933 0.1567,-0.35 0.35,-0.35 0.1933,0 0.35,0.1567 0.35,0.35 z"
         fill="#ffffff"
         id="path16-1" />
    </g>
    <g
       inkscape:groupmode="layer"
       id="layer1-6"
       inkscape:label="FrontHair"
       style="display:none"
       transform="scale(2.1166667)">
      <path
         d="M 19.756709,12.985236 C 12.999182,13.429628 10.735254,7.6978779 10.735254,7.6978779 9.6923093,11.729196 8.1102612,14.940299 5.9484937,17.697125 4.4980254,15.022447 3.96631,14.204246 4.02881,11.06 4.0991067,7.5235186 6.6282,4.59436 10.0215,4.0801 10.0787,2.92121 11.0353,2 12.1988,2 h 5.81 c 5.52,0 9.140024,4.5474005 10,10 0.428409,2.716288 -0.836971,5.091889 -2.004475,6.581575 -0.298297,-2.764096 -2.462107,-5.845283 -6.247616,-5.596339 z"
         fill="#212121"
         id="path1-85"
         sodipodi:nodetypes="sccscssscs"
         style="display:none;fill:#ffffff"
         inkscape:label="Normal" />
      <path
         style="display:inline;opacity:1;fill:#ffe680;fill-opacity:1;stroke-width:0.375;stroke-opacity:0.59944"
         d="M 4.5961939,15.202795 C 6.0020254,14.630392 6.3986358,14.415697 7.9549509,14.142135 8.2747423,11.202789 8.5010213,10.641573 9.5459411,8.3968926 8.8460905,10.938583 8.8290553,11.622598 8.8609318,13.987456 10.361737,13.631004 10.786648,13.471834 11.97662,13.479221 12.124668,11.602943 12.555975,10.189772 13.081475,8.3968906 12.6933,11.148376 12.66325,11.623671 12.838406,13.479221 c 2.739697,-0.250712 3.626796,-0.137847 5.877826,0.08839 0.0552,-2.340886 -0.01081,-2.894785 -0.287262,-5.1265242 0.614452,1.7214722 0.977001,3.3087352 1.104854,5.1265232 1.863817,0.176241 2.311538,0.264782 3.425048,0.486137 -0.01757,-2.385353 -0.08023,-3.025854 -0.773398,-5.7010486 1.32368,3.0600826 1.44028,3.7890946 1.568893,5.8336296 2.08969,0.155219 2.622745,0.495997 4.043767,1.104856 C 29.09154,7.7074272 23.191972,2.7299517 19.312853,1.7677669 15.112222,0.83208668 1.4040089,3.1141523 4.5961939,15.202795 Z"
         id="path37"
         sodipodi:nodetypes="ccccccccccccccsc"
         inkscape:label="Straight" />
      <path
         d="M 10.735254,7.6978779 C 9.6923093,11.729196 8.1102612,14.940299 5.9484937,17.697125 4.4980254,15.022447 3.96631,14.204246 4.02881,11.06 4.0991067,7.5235186 6.6282,4.59436 10.0215,4.0801 10.0787,2.92121 11.0353,2 12.1988,2 h 5.81 c 5.52,0 9.140024,4.5474005 10,10 0.428409,2.716288 -0.892214,7.146918 -2.059718,8.636604 C 20.220143,22.130637 14.29472,19.840017 10.735254,7.6978779 Z"
         fill="#212121"
         id="path39"
         sodipodi:nodetypes="ccscssscc"
         style="display:none;opacity:1;fill:#f9f9f9"
         inkscape:label="OneEyeCover" />
      <path
         style="display:inline;fill:#f9f9f9;stroke-width:0.375;stroke-opacity:0.59944"
         d="m 4.5078056,11.357903 c -0.4392122,1.624112 -0.6053298,4.51895 -0.5303301,6.761708 0.081958,2.45082 0.5316285,4.879763 0.9722719,7.292038 0.1984119,1.086194 0.7513009,3.226175 0.7513009,3.226175 l 1.9887377,0.795495 c 0,0 -0.5257757,-2.196205 -0.6629125,-3.314563 -0.26924,-2.195668 -0.3351208,-4.417163 -0.3093592,-6.629126 0.022099,-1.897492 0.3977475,-5.678951 0.3977475,-5.678951 0,0 0.7496487,-0.105955 1.1269515,-0.132583 0.3086791,-0.02178 0.9280776,-0.0221 0.9280776,-0.0221 0,0 0.081417,-1.303655 0.1988737,-1.944543 0.1442921,-0.787311 0.6187184,-2.3201942 0.6187184,-2.3201942 0,0 -0.2059144,1.7210552 -0.1988737,2.5853592 0.00452,0.55481 0.1546796,1.657282 0.1546796,1.657282 0,0 0.9853691,-0.114214 1.4805051,-0.132583 0.485857,-0.01802 1.458407,0.0221 1.458407,0.0221 0,0 0.121757,-1.701671 0.265165,-2.541164 0.170873,-1.0002668 0.707108,-2.9610096 0.707108,-2.9610096 0,0 -0.269679,2.1619216 -0.265167,3.2482716 0.0031,0.73954 0.198875,2.209709 0.198875,2.209709 0,0 1.369861,-0.04479 2.055029,-0.04419 0.633621,5.54e-4 1.900349,0.04419 1.900349,0.04419 0,0 0.146041,-1.707805 0.132582,-2.563262 -0.01535,-0.9755213 -0.243067,-2.9168157 -0.243067,-2.9168157 0,0 0.570271,2.1814187 0.751301,3.2924657 0.120222,0.737842 0.22097,2.231805 0.22097,2.231805 0,0 1.26724,0.01876 1.90035,0.0442 0.516024,0.02074 1.546797,0.08839 1.546797,0.08839 V 11.66727 L 21.743532,9.2586871 c 0,0 0.542049,1.5908779 0.729204,2.4085829 0.148057,0.646881 0.30936,1.966641 0.30936,1.966641 0,0 0.603552,0.07742 0.90598,0.110485 0.228044,0.02493 0.68501,0.06629 0.68501,0.06629 0,0 0.31824,3.354998 0.353554,5.038136 0.03849,1.834379 -0.02931,3.67168 -0.15468,5.502174 -0.08354,1.219693 -0.223587,2.435938 -0.397748,3.64602 -0.07142,0.496241 -0.265165,1.480505 -0.265165,1.480505 l 1.96664,-0.861788 c 0,0 0.563616,-2.184795 0.773399,-3.292465 0.335145,-1.769587 0.657092,-3.55021 0.773398,-5.347495 0.132246,-2.043601 0.04722,-4.638635 -0.08839,-6.14299 C 26.994851,10.069447 24.193197,2.116533 16.243308,2.0399826 6.4425678,1.9456102 5.355138,8.2246494 4.5078056,11.357903 Z"
         id="path41"
         sodipodi:nodetypes="sssccsscscscscscscscscscscscccacscsssccsssss"
         inkscape:label="BobCut" />
    </g>
    <g
       inkscape:groupmode="layer"
       id="layer8-7"
       inkscape:label="Upper"
       transform="scale(2.1166667)"
       style="display:none">
      <path
         d="m 15.83505,1.75 c 2.16,0 4.26,0.37 5.75,1.01 1.25,0.54 1.72,1.12 1.72,1.36 0,0.24 -0.47,0.82 -1.72,1.36 -1.49,0.64 -3.58,1.01 -5.75,1.01 -2.17,0 -4.26,-0.36 -5.74,-1 C 8.835,4.95 8.375,4.36 8.375,4.12 c 0,-0.24 0.47,-0.82 1.72005,-1.36 1.48,-0.64 3.58,-1.01 5.74,-1.01 z m 0,-1.5 c -4.95,0 -8.96005,1.73 -8.96005,3.87 0,2.14 4.01005,3.87 8.97005,3.87 4.96,0 8.9699,-1.73 8.9699,-3.87 0,-2.14 -4.0199,-3.87 -8.9799,-3.87 z"
         fill="#26c9fc"
         id="path1-8"
         style="display:inline;opacity:1"
         inkscape:label="Halo" />
      <g
         inkscape:groupmode="layer"
         id="layer7"
         inkscape:label="WolfEars"
         transform="translate(0.02813003,0.02144531)"
         style="display:none">
        <path
           d="M 23.652897,6.89017 23.630173,0.6114267 C 23.652897,0.16457016 23.107578,-0.07021886 22.804624,0.25545625 L 17.449921,4.3453297 c -0.204493,0.1590505 -0.462003,0.3025295 -0.719515,0.3025295 h -1.325421 c -0.257511,0 -0.515021,-0.143479 -0.719516,-0.3025295 L 9.3307347,0.25545625 C 9.0277812,-0.07021886 8.4824646,0.16457016 8.5051862,0.6114267 L 8.482464,6.9962038 C 8.2844514,7.0025595 10.893559,6.344793 13.681686,5.8508674 16.469165,5.3570553 17.911033,5.671809 20.884741,6.334457"
           fill="#9b9b9b"
           id="path1-09-8"
           sodipodi:nodetypes="ccccssccccsc"
           style="display:inline;fill:#ff9955;stroke-width:0.757384" />
        <path
           d="M 9.2549887,5.9888377 C 9.2474158,6.2084488 9.4746301,6.3674995 9.6866976,6.291761 L 12.943488,5.1102724 c 0.234789,-0.083313 0.287805,-0.4014136 0.0833,-0.5604642 L 9.7851575,2.0731626 C 9.5958115,1.8610951 9.247415,2.0125718 9.2625625,2.292804 Z"
           fill="#d3d3d3"
           id="path2-48-9"
           style="display:inline;fill:#ffccaa;stroke-width:0.757384" />
        <path
           d="m 22.895437,5.9888832 c 0,0.2196413 -0.219643,0.378692 -0.43171,0.3029535 L 19.199403,5.1103176 C 18.964612,5.0270056 18.911597,4.7089042 19.116091,4.5498536 L 22.357695,2.073208 c 0.189344,-0.2044936 0.537742,-0.053017 0.522593,0.2272153 z"
           fill="#d3d3d3"
           id="path3-82-2"
           style="display:inline;fill:#ffccaa;stroke-width:0.757384" />
      </g>
      <g
         inkscape:groupmode="layer"
         id="layer20"
         inkscape:label="Horns"
         style="display:inline"
         transform="scale(0.47244093)">
        <path
           d="m 7.5024707,8.3753088 c 0,0 1.5,0 2.4999693,-1.0000005 1,-1 1,-2.5 1,-2.5 l -4.8661093,-2.89147 c -0.62931,-0.37394 -1.36667,0.28283 -1.06773,0.95104 z"
           fill="#fcd53f"
           id="path8-9-6"
           style="display:none;opacity:1;fill:#cccccc"
           transform="scale(2.1166667)" />
        <path
           d="m 24.602441,8.3753088 c 0,0 -1.5,0 -2.5,-1.0000005 -1,-1 -1,-2.5 -1,-2.5 l 4.8661,-2.89147 c 0.6293,-0.37394 1.3667,0.28283 1.0677,0.95104 z"
           fill="#fcd53f"
           id="path9-4-1"
           style="display:none;opacity:1;fill:#cccccc"
           transform="scale(2.1166667)" />
      </g>
    </g>
  </g>
</svg>
